<svg xmlns="http://www.w3.org/2000/svg" fill="#FF5A5F" width="59.028" viewBox="0 0 503.708 59.004" xml:space="preserve" height="59.004"><path d="M458.333-41.113c-33.95-108.448-149.771-169.054-258.24-135.117C91.636-142.28 31.023-26.43 64.967 82.018l13.327-4.175c-31.647-101.097 24.861-209.1 125.972-240.753 48.981-15.324 101-10.66 146.455 13.125 45.477 23.8 78.96 63.873 94.291 112.847 15.324 48.975 10.667 100.986-13.125 146.456-23.786 45.476-63.858 78.96-112.84 94.29-81.982 25.657-171.846-6.743-218.587-78.805L88.747 132.6c38.635 59.58 104.762 93.886 173.312 93.878a204.11 204.11 0 0 0 61.157-9.355c52.535-16.44 95.52-52.36 121.043-101.132 25.524-48.772 30.516-104.567 14.074-157.103z"/><path d="m228.334-101.776 4.18-13.954-72.825-21.847a7.273 7.273 0 0 0-7.239 1.828l-14.564 14.565a7.281 7.281 0 0 0 2.192 11.805l65.542 29.13 5.914-13.313-55.85-24.826 3.992-3.99z"/><path d="M286.04-129.504a6.98 6.98 0 0 0-6.981-6.981h-.014c-15.36 0-29.804 5.983-40.667 16.846l-59.202 59.196-24.093-6.026a6.98 6.98 0 0 0-6.632 1.836L134.488-50.67a6.974 6.974 0 0 0 1.34 10.92l33.414 20.05 20.05 33.412a6.975 6.975 0 0 0 5.131 3.337 7.036 7.036 0 0 0 5.795-1.99L214.181 1.1a6.998 6.998 0 0 0 1.836-6.633L210-29.6l60.145-59.551c10.262-10.745 15.91-24.861 15.896-40.353zM197.34-36.735a6.984 6.984 0 0 0-1.863 6.653l6.025 24.093-4.845 4.845-16.344-27.241a6.954 6.954 0 0 0-2.394-2.395l-27.241-16.343 4.845-4.845 24.093 6.025a6.98 6.98 0 0 0 6.632-1.836l61.995-61.995c6.423-6.43 14.507-10.597 23.276-12.112-1.383 8.629-5.313 16.63-11.345 22.947z"/><path d="m281.103-15.202-21.847-73.771-13.968 4.137 20.529 69.315-4.42 3.904-24.28-56.323-13.378 5.767L251.995 3.37a7.287 7.287 0 0 0 6.692 4.4 7.26 7.26 0 0 0 4.814-1.821l15.44-13.618a7.289 7.289 0 0 0 2.162-7.533zM188.517 199.291c-49.722 23.562-88.727 26.606-106.99 8.35-31.654-31.654 2.722-123.619 79.957-213.93l-10.611-9.076C66.16 83.687 33.579 179.45 71.649 217.513c10.633 10.625 25.65 15.924 44.275 15.924 21.712 0 48.325-7.197 78.569-21.53zM424.844 55.69a6.984 6.984 0 0 0-6.158-3.685h-23.611l-19.017-38.028a6.99 6.99 0 0 0-6.249-3.86h-69.814a6.98 6.98 0 0 0-6.981 6.98V72.95a6.975 6.975 0 0 0 6.981 6.981h20.944v76.796a6.974 6.974 0 0 0 6.981 6.98h34.907c1.85 0 3.624-.732 4.943-2.052l27.925-27.925a6.952 6.952 0 0 0 2.046-4.936v-25.81l26.752-40.13a6.982 6.982 0 0 0 .35-7.162zM384.944 97a7.018 7.018 0 0 0-1.172 3.875v25.035l-23.834 23.834h-25.043V72.95a6.974 6.974 0 0 0-6.981-6.981H306.97V24.08h58.518l19.017 38.027a6.99 6.99 0 0 0 6.248 3.861h14.884zM429.71-3.846l-25.915-45.352a6.98 6.98 0 0 0-6.06-3.518h-41.888a6.99 6.99 0 0 0-5.808 3.106l-11.89 17.837h-17.208v-34.906h34.906a6.963 6.963 0 0 0 4.936-2.046l25.88-25.88h32.016v-13.962h-34.906a6.963 6.963 0 0 0-4.936 2.045l-25.88 25.88H313.96a6.98 6.98 0 0 0-6.98 6.982v48.869a6.98 6.98 0 0 0 6.98 6.981h27.926a6.99 6.99 0 0 0 5.808-3.106l11.89-17.838h34.104l25.915 45.351a6.98 6.98 0 0 0 6.06 3.52h27.925V-3.847z"/><path d="M258.107 65.968H219.11L200.21 47.069a6.961 6.961 0 0 0-4.936-2.045H160.37a6.98 6.98 0 0 0-6.982 6.981v48.87a6.98 6.98 0 0 0 6.982 6.98h27.925v69.815a6.986 6.986 0 0 0 3.861 6.247c.985.49 2.06.734 3.121.734 1.48 0 2.953-.468 4.189-1.397l27.925-20.944a6.987 6.987 0 0 0 2.793-5.584v-17.593l32.289-25.824a6.985 6.985 0 0 0 2.617-5.453V72.95a6.981 6.981 0 0 0-6.982-6.982zm-6.981 38.537-32.289 25.824a6.987 6.987 0 0 0-2.618 5.453v17.453l-13.962 10.473v-62.833a6.98 6.98 0 0 0-6.982-6.981H167.35V58.987h25.035l18.898 18.899a6.965 6.965 0 0 0 4.936 2.045h34.907zM117.481-35.367 96.537-70.273a6.972 6.972 0 0 0-5.982-3.387h-6.982v13.963h3.03l16.107 26.843-17.09 17.09a6.961 6.961 0 0 0-2.046 4.936v20.944H62.63V24.08h27.925a6.984 6.984 0 0 0 6.981-6.981V-7.937l18.899-18.899a6.989 6.989 0 0 0 1.047-8.53zM272.077-178.38v8.517l-22.64 5.661a7.094 7.094 0 0 0-2.179.964l-17.572 11.715-38.265-19.136-6.248 12.49 41.888 20.943a6.983 6.983 0 0 0 6.989-.44l19.938-13.292 26.76-6.688a6.983 6.983 0 0 0 5.292-6.772v-13.962z"/></svg>