<?xml version="1.0" encoding="UTF-8" standalone="no"?>
<!-- Generator: Adobe Illustrator 19.0.0, SVG Export Plug-In . SVG Version: 6.00 Build 0)  -->

<svg
   xmlns:dc="http://purl.org/dc/elements/1.1/"
   xmlns:cc="http://creativecommons.org/ns#"
   xmlns:rdf="http://www.w3.org/1999/02/22-rdf-syntax-ns#"
   xmlns:svg="http://www.w3.org/2000/svg"
   xmlns="http://www.w3.org/2000/svg"
   xmlns:sodipodi="http://sodipodi.sourceforge.net/DTD/sodipodi-0.dtd"
   xmlns:inkscape="http://www.inkscape.org/namespaces/inkscape"
   version="1.1"
   width="59.028164"
   id="Capa_1"
   x="0px"
   y="0px"
   viewBox="0 0 503.70798 59.003646"
   xml:space="preserve"
   sodipodi:docname="logo.svg"
   height="59.003643"
   inkscape:version="0.92.5 (2060ec1f9f, 2020-04-08)"><metadata
   id="metadata97"><rdf:RDF><cc:Work
       rdf:about=""><dc:format>image/svg+xml</dc:format><dc:type
         rdf:resource="http://purl.org/dc/dcmitype/StillImage" /><dc:title></dc:title></cc:Work></rdf:RDF></metadata><defs
   id="defs95" /><sodipodi:namedview
   pagecolor="#ffffff"
   bordercolor="#666666"
   borderopacity="1"
   objecttolerance="10"
   gridtolerance="10"
   guidetolerance="10"
   inkscape:pageopacity="0"
   inkscape:pageshadow="2"
   inkscape:window-width="1366"
   inkscape:window-height="704"
   id="namedview93"
   showgrid="false"
   fit-margin-top="0"
   fit-margin-left="0"
   fit-margin-right="0"
   fit-margin-bottom="0"
   inkscape:zoom="3.687493"
   inkscape:cx="44.842391"
   inkscape:cy="50.375302"
   inkscape:window-x="0"
   inkscape:window-y="0"
   inkscape:window-maximized="1"
   inkscape:current-layer="Capa_1" />
<g
   id="g6"
   transform="matrix(0.81853918,0,0,0.81853918,52.144744,-185.65625)">
	<g
   id="g4">
		<path
   d="M 496.236,176.587 C 454.759,44.097 313.262,-29.944 180.746,11.516 48.247,52.993 -25.803,194.524 15.666,327.014 l 16.282,-5.1 C -6.715,198.405 62.32,66.46 185.846,27.789 c 59.84,-18.721 123.39,-13.024 178.923,16.035 55.558,29.076 96.464,78.032 115.194,137.864 18.721,59.831 13.032,123.373 -16.035,178.923 -29.059,55.558 -78.015,96.464 -137.855,115.194 C 225.916,507.149 116.13,467.566 59.028,379.529 l -14.312,9.28 c 47.2,72.787 127.987,114.699 211.734,114.69 24.905,0 50.091,-3.702 74.715,-11.429 64.181,-20.086 116.695,-63.968 147.877,-123.552 31.182,-59.585 37.28,-127.749 17.194,-191.931 z"
   id="path2"
   inkscape:connector-curvature="0" />
	</g>
</g>
<g
   id="g12"
   transform="matrix(0.85384371,0,0,0.85384371,51.998338,-203.73225)">
	<g
   id="g10">
		<path
   d="m 206.52,119.408 4.896,-16.342 -85.291,-25.587 c -2.985,-0.904 -6.252,-0.085 -8.478,2.141 l -17.058,17.058 c -1.987,1.987 -2.866,4.827 -2.354,7.591 0.512,2.763 2.354,5.092 4.921,6.235 l 76.762,34.116 6.926,-15.591 -65.409,-29.076 4.674,-4.674 z"
   id="path8"
   inkscape:connector-curvature="0" />
	</g>
</g>
<g
   id="g18"
   transform="matrix(0.81853918,0,0,0.81853918,52.144744,-185.65625)">
	<g
   id="g16">
		<path
   d="m 285.747,68.601 c 0,-4.708 -3.813,-8.529 -8.529,-8.529 -0.009,0 -0.009,0 -0.017,0 -18.764,0 -36.411,7.309 -49.682,20.581 l -72.326,72.318 -29.434,-7.361 c -2.908,-0.725 -5.979,0.119 -8.103,2.243 l -17.058,17.058 c -1.859,1.859 -2.763,4.469 -2.439,7.071 0.324,2.601 1.825,4.921 4.077,6.269 l 40.82,24.495 24.495,40.82 c 1.348,2.252 3.659,3.753 6.269,4.077 0.341,0.043 0.691,0.06 1.041,0.06 2.243,0 4.418,-0.887 6.039,-2.49 l 17.058,-17.058 c 2.115,-2.124 2.968,-5.194 2.243,-8.103 l -7.352,-29.4 73.478,-72.753 c 12.537,-13.127 19.437,-30.372 19.42,-49.298 z M 177.385,181.935 c -2.141,2.115 -3.002,5.203 -2.277,8.128 l 7.361,29.434 -5.919,5.919 -19.967,-33.28 c -0.725,-1.203 -1.723,-2.209 -2.925,-2.925 l -33.28,-19.967 5.919,-5.919 29.434,7.361 c 2.908,0.725 5.979,-0.119 8.103,-2.243 l 75.738,-75.738 c 7.847,-7.855 17.723,-12.947 28.436,-14.798 -1.689,10.542 -6.491,20.316 -13.86,28.035 z"
   id="path14"
   inkscape:connector-curvature="0" />
	</g>
</g>
<g
   id="g24"
   transform="matrix(0.85384371,0,0,0.85384371,51.998338,-203.73225)">
	<g
   id="g22">
		<path
   d="m 268.322,220.802 -25.587,-86.399 -16.359,4.845 24.043,81.18 -5.177,4.572 -28.436,-65.964 -15.668,6.755 33.093,76.762 c 1.083,2.508 3.301,4.35 5.97,4.947 0.623,0.136 1.245,0.205 1.868,0.205 2.056,0 4.068,-0.742 5.638,-2.132 l 18.082,-15.949 c 2.49,-2.195 3.471,-5.632 2.533,-8.822 z"
   id="path20"
   inkscape:connector-curvature="0" />
	</g>
</g>
<g
   id="g30"
   transform="matrix(0.81853918,0,0,0.81853918,52.144744,-185.65625)">
	<g
   id="g28">
		<path
   d="M 166.604,470.286 C 105.86,499.071 58.208,502.79 35.896,480.487 -2.775,441.816 39.222,329.463 133.579,219.131 L 120.615,208.043 C 17.124,329.053 -22.681,446.046 23.828,492.547 c 12.99,12.981 31.336,19.455 54.091,19.455 26.525,0 59.038,-8.793 95.986,-26.304 z"
   id="path26"
   inkscape:connector-curvature="0" />
	</g>
</g>
<g
   id="g36"
   transform="matrix(0.81853918,0,0,0.81853918,52.144744,-185.65625)">
	<g
   id="g34">
		<path
   d="m 455.322,294.851 c -1.484,-2.772 -4.375,-4.503 -7.523,-4.503 H 418.954 L 395.721,243.89 c -1.45,-2.891 -4.401,-4.717 -7.634,-4.717 h -85.291 c -4.717,0 -8.529,3.821 -8.529,8.529 v 68.233 c 0,4.717 3.813,8.529 8.529,8.529 h 25.587 v 93.82 c 0,4.717 3.812,8.529 8.529,8.529 h 42.645 c 2.26,0 4.427,-0.896 6.039,-2.508 l 34.116,-34.116 c 1.603,-1.595 2.499,-3.761 2.499,-6.03 v -31.532 l 32.683,-49.025 c 1.741,-2.61 1.912,-5.979 0.428,-8.751 z m -48.744,50.467 c -0.93,1.399 -1.433,3.053 -1.433,4.734 v 30.585 l -29.118,29.118 h -30.585 -0.009 v -93.82 c 0,-4.717 -3.812,-8.529 -8.529,-8.529 h -25.587 v -51.174 h 71.491 l 23.233,46.458 c 1.45,2.891 4.401,4.717 7.633,4.717 h 18.184 z"
   id="path32"
   inkscape:connector-curvature="0" />
	</g>
</g>
<g
   id="g42"
   transform="matrix(0.81853918,0,0,0.81853918,52.144744,-185.65625)">
	<g
   id="g40">
		<path
   d="m 461.267,222.115 -31.66,-55.405 c -1.518,-2.661 -4.35,-4.299 -7.403,-4.299 H 371.03 c -2.849,0 -5.51,1.424 -7.096,3.795 l -14.525,21.792 h -21.024 v -42.645 h 42.645 c 2.269,0 4.427,-0.896 6.03,-2.499 l 31.617,-31.617 h 39.114 V 94.179 h -42.645 c -2.269,0 -4.427,0.896 -6.03,2.499 l -31.617,31.617 h -47.643 c -4.717,0 -8.529,3.821 -8.529,8.529 v 59.703 c 0,4.708 3.813,8.529 8.529,8.529 h 34.116 c 2.849,0 5.51,-1.424 7.096,-3.795 l 14.525,-21.792 h 41.665 l 31.66,55.405 c 1.518,2.661 4.35,4.299 7.403,4.299 h 34.116 v -17.058 z"
   id="path38"
   inkscape:connector-curvature="0" />
	</g>
</g>
<g
   id="g48"
   transform="matrix(0.81853918,0,0,0.81853918,52.144744,-185.65625)">
	<g
   id="g46">
		<path
   d="m 251.622,307.406 h -47.643 l -23.088,-23.088 c -1.595,-1.604 -3.77,-2.499 -6.03,-2.499 h -42.645 c -4.708,0 -8.529,3.813 -8.529,8.529 v 59.703 c 0,4.717 3.821,8.529 8.529,8.529 h 34.116 v 85.291 c 0,3.233 1.825,6.184 4.717,7.633 1.203,0.597 2.516,0.896 3.813,0.896 1.808,0 3.608,-0.571 5.117,-1.706 l 34.116,-25.587 c 2.149,-1.612 3.412,-4.145 3.412,-6.823 v -21.493 l 39.447,-31.549 c 2.021,-1.62 3.198,-4.068 3.198,-6.661 v -42.645 c -10e-4,-4.717 -3.822,-8.53 -8.53,-8.53 z m -8.529,47.081 -39.447,31.549 c -2.021,1.621 -3.198,4.068 -3.198,6.661 v 21.323 l -17.058,12.794 v -76.762 c 0,-4.717 -3.821,-8.529 -8.529,-8.529 h -34.116 v -42.645 h 30.585 l 23.088,23.088 c 1.595,1.603 3.77,2.499 6.03,2.499 h 42.645 z"
   id="path44"
   inkscape:connector-curvature="0" />
	</g>
</g>
<g
   id="g54"
   transform="matrix(0.81853918,0,0,0.81853918,52.144744,-185.65625)">
	<g
   id="g52">
		<path
   d="M 79.821,183.607 54.234,140.962 c -1.535,-2.567 -4.316,-4.137 -7.309,-4.137 h -8.529 v 17.058 h 3.702 l 19.677,32.794 -20.879,20.879 c -1.604,1.595 -2.499,3.77 -2.499,6.03 v 25.587 H 12.808 v 17.058 h 34.116 c 4.708,0 8.529,-3.821 8.529,-8.529 v -30.585 l 23.088,-23.088 c 2.764,-2.772 3.293,-7.062 1.28,-10.422 z"
   id="path50"
   inkscape:connector-curvature="0" />
	</g>
</g>
<g
   id="g60"
   transform="matrix(0.81853918,0,0,0.81853918,52.144744,-185.65625)">
	<g
   id="g58">
		<path
   d="m 268.689,8.889 v 10.405 l -27.66,6.917 c -0.947,0.239 -1.851,0.64 -2.661,1.177 L 216.9,41.7 170.152,18.322 162.519,33.58 213.693,59.167 c 1.203,0.597 2.508,0.896 3.813,0.896 1.655,0 3.301,-0.486 4.725,-1.433 L 246.59,42.391 279.282,34.22 c 3.795,-0.947 6.465,-4.358 6.465,-8.273 V 8.889 Z"
   id="path56"
   inkscape:connector-curvature="0" />
	</g>
</g>
<g
   id="g62"
   transform="translate(-4.1469646,-1928.5415)">
</g>
<g
   id="g64"
   transform="translate(-4.1469646,-1928.5415)">
</g>
<g
   id="g66"
   transform="translate(-4.1469646,-1928.5415)">
</g>
<g
   id="g68"
   transform="translate(-4.1469646,-1928.5415)">
</g>
<g
   id="g70"
   transform="translate(-4.1469646,-1928.5415)">
</g>
<g
   id="g72"
   transform="translate(-4.1469646,-1928.5415)">
</g>
<g
   id="g74"
   transform="translate(-4.1469646,-1928.5415)">
</g>
<g
   id="g76"
   transform="translate(-4.1469646,-1928.5415)">
</g>
<g
   id="g78"
   transform="translate(-4.1469646,-1928.5415)">
</g>
<g
   id="g80"
   transform="translate(-4.1469646,-1928.5415)">
</g>
<g
   id="g82"
   transform="translate(-4.1469646,-1928.5415)">
</g>
<g
   id="g84"
   transform="translate(-4.1469646,-1928.5415)">
</g>
<g
   id="g86"
   transform="translate(-4.1469646,-1928.5415)">
</g>
<g
   id="g88"
   transform="translate(-4.1469646,-1928.5415)">
</g>
<g
   id="g90"
   transform="translate(-4.1469646,-1928.5415)">
</g>
</svg>